<svg width="82" height="82" viewBox="0 0 82 82" fill="none" xmlns="http://www.w3.org/2000/svg">
<path d="M41 0L42.7101 30.9467C42.7634 31.9111 44.0173 32.2471 44.5457 31.4386L61.5 5.49296L47.5076 33.1487C47.0716 34.0105 47.9895 34.9284 48.8513 34.4924L76.507 20.5L50.5614 37.4543C49.7529 37.9827 50.0889 39.2366 51.0533 39.2899L82 41L51.0533 42.7101C50.0889 42.7634 49.7529 44.0173 50.5614 44.5457L76.507 61.5L48.8513 47.5076C47.9895 47.0716 47.0716 47.9895 47.5076 48.8513L61.5 76.507L44.5457 50.5614C44.0173 49.7529 42.7634 50.0889 42.7101 51.0533L41 82L39.2899 51.0533C39.2366 50.0889 37.9827 49.7529 37.4543 50.5614L20.5 76.507L34.4924 48.8513C34.9284 47.9895 34.0105 47.0716 33.1487 47.5076L5.49296 61.5L31.4386 44.5457C32.2471 44.0173 31.9111 42.7634 30.9467 42.7101L0 41L30.9467 39.2899C31.9111 39.2366 32.2471 37.9827 31.4386 37.4543L5.49296 20.5L33.1487 34.4924C34.0105 34.9284 34.9284 34.0105 34.4924 33.1487L20.5 5.49296L37.4543 31.4386C37.9827 32.2471 39.2366 31.9111 39.2899 30.9467L41 0Z" fill="white"/>
</svg>
